<?xml version="1.0" standalone="no"?>
<!DOCTYPE svg PUBLIC "-//W3C//DTD SVG 20010904//EN"
 "http://www.w3.org/TR/2001/REC-SVG-20010904/DTD/svg10.dtd">
<svg version="1.0" xmlns="http://www.w3.org/2000/svg"
 width="236.000000pt" height="106.000000pt" viewBox="0 0 236.000000 106.000000"
 preserveAspectRatio="xMidYMid meet">

<g transform="translate(0.000000,106.000000) scale(0.100000,-0.100000)"
fill="#000000" stroke="none">
<path d="M460 986 c-169 -49 -305 -187 -355 -360 -23 -79 -16 -208 15 -289 64
-169 244 -310 416 -324 54 -5 63 -3 90 20 24 21 29 33 29 71 0 60 -24 83 -104
101 -86 21 -131 46 -183 103 -98 109 -92 261 14 377 97 107 232 139 344 82 85
-43 131 -106 160 -221 19 -78 47 -106 103 -106 45 0 79 23 97 65 11 27 11 42
-2 95 -20 88 -58 153 -138 238 -54 57 -87 82 -153 114 -79 39 -88 41 -186 44
-64 2 -119 -1 -147 -10z"/>
<path d="M1614 971 c-36 -22 -25 -1 -234 -471 -88 -199 -160 -373 -160 -390 0
-68 85 -110 146 -72 26 17 45 52 119 228 218 515 200 478 214 447 7 -15 63
-149 126 -298 62 -150 123 -293 136 -319 23 -50 59 -76 105 -76 33 0 94 59 94
91 0 13 -82 207 -182 432 -158 356 -185 412 -212 428 -40 25 -112 25 -152 0z"/>
<path d="M1633 410 c-40 -24 -53 -48 -53 -97 1 -90 109 -137 179 -77 61 51 48
150 -24 180 -45 19 -64 18 -102 -6z"/>
<path d="M924 230 c-56 -22 -80 -100 -50 -159 29 -55 114 -68 165 -25 95 80 1
231 -115 184z"/>
</g>
</svg>
